<svg width="161" height="29" viewBox="0 0 161 29" fill="none" xmlns="http://www.w3.org/2000/svg">
<circle cx="9.00031" cy="16" r="7.03238" transform="rotate(12.6592 9.00031 16)" stroke="#5F4DEA"/>
<circle cx="9.00031" cy="16" r="7.03238" transform="rotate(12.6592 9.00031 16)" stroke="#5F4DEA"/>
<path d="M9.6429 16.4544C8.47803 18.068 7.19626 19.3377 6.08111 20.0919C5.52177 20.4702 5.0275 20.703 4.6282 20.7974C4.22712 20.8923 3.987 20.8349 3.84689 20.7338C3.70679 20.6327 3.57679 20.4228 3.54056 20.0122C3.5045 19.6035 3.56989 19.0611 3.75289 18.4111C4.11773 17.1152 4.91943 15.4989 6.0843 13.8853C7.24918 12.2718 8.53095 11.002 9.64609 10.2478C10.2054 9.86954 10.6997 9.63672 11.099 9.5423C11.5001 9.44745 11.7402 9.50478 11.8803 9.60592C12.0204 9.70707 12.1504 9.91694 12.1866 10.3275C12.2227 10.7362 12.1573 11.2786 11.9743 11.9286C11.6095 13.2245 10.8078 14.8408 9.6429 16.4544Z" stroke="#5F4DEA"/>
<path d="M7.97388 17.0813C6.46834 15.6895 5.26494 14.2824 4.53324 13.1421C4.16531 12.5687 3.93254 12.0871 3.83064 11.7244C3.77986 11.5436 3.76815 11.415 3.77477 11.3314C3.77793 11.2914 3.78487 11.2671 3.78993 11.2542C3.79458 11.2423 3.79813 11.2386 3.79881 11.2379L3.79884 11.2378C3.79959 11.237 3.8031 11.2332 3.81441 11.2277C3.82687 11.2217 3.85051 11.2128 3.89015 11.2066C3.97296 11.1934 4.1021 11.195 4.28632 11.2314C4.65592 11.3046 5.15427 11.4988 5.75477 11.8207C6.94898 12.4607 8.44617 13.55 9.95172 14.9417C11.4573 16.3334 12.6607 17.7406 13.3924 18.8809C13.7603 19.4543 13.9931 19.9359 14.095 20.2986C14.1457 20.4794 14.1574 20.608 14.1508 20.6916C14.1477 20.7316 14.1407 20.7559 14.1357 20.7688C14.1311 20.7805 14.1276 20.7843 14.1268 20.7851L14.1268 20.7851L14.1268 20.7852C14.126 20.786 14.1225 20.7898 14.1112 20.7953C14.0987 20.8013 14.0751 20.8101 14.0355 20.8164C13.9526 20.8296 13.8235 20.828 13.6393 20.7916C13.2697 20.7184 12.7713 20.5241 12.1708 20.2023C10.9766 19.5623 9.47942 18.473 7.97388 17.0813Z" stroke="#5F4DEA"/>
<path d="M31.96 20.36C31.96 20.84 31.84 21.28 31.6 21.68C31.36 22.08 31.04 22.4 30.64 22.64C30.24 22.88 29.8 23 29.32 23H25.48C25 23 24.5533 22.88 24.14 22.64C23.74 22.4 23.42 22.08 23.18 21.68C22.94 21.28 22.82 20.84 22.82 20.36V19.76C22.82 19.5067 22.9067 19.2933 23.08 19.12C23.2667 18.9333 23.4867 18.84 23.74 18.84H24.3C24.54 18.84 24.7467 18.9333 24.92 19.12C25.1067 19.2933 25.2 19.5067 25.2 19.76V20.36C25.2 20.4267 25.2267 20.4933 25.28 20.56C25.3467 20.6133 25.4133 20.64 25.48 20.64H29.32C29.3867 20.64 29.4467 20.6133 29.5 20.56C29.5533 20.4933 29.58 20.4267 29.58 20.36V18.54C29.58 18.3933 29.5133 18.3 29.38 18.26L24.58 16.46C24.0467 16.2733 23.62 15.9467 23.3 15.48C22.98 15.0133 22.82 14.5 22.82 13.94V12.14C22.82 11.6467 22.94 11.2 23.18 10.8C23.42 10.4 23.74 10.08 24.14 9.84C24.5533 9.6 25 9.48 25.48 9.48H29.32C29.8 9.48 30.24 9.6 30.64 9.84C31.04 10.08 31.36 10.4 31.6 10.8C31.84 11.2 31.96 11.6467 31.96 12.14V12.68C31.96 12.9333 31.8667 13.1467 31.68 13.32C31.5067 13.4933 31.2933 13.58 31.04 13.58H30.5C30.2467 13.58 30.0267 13.4933 29.84 13.32C29.6667 13.1467 29.58 12.9333 29.58 12.68V12.14C29.58 11.9533 29.4933 11.86 29.32 11.86H25.48C25.4133 11.86 25.3467 11.8867 25.28 11.94C25.2267 11.9933 25.2 12.06 25.2 12.14V13.94C25.2 14.1 25.2667 14.2 25.4 14.24L30.22 16.04C30.74 16.2267 31.16 16.5533 31.48 17.02C31.8 17.4867 31.96 17.9933 31.96 18.54V20.36ZM42.5013 15.06C42.5013 15.54 42.3813 15.98 42.1413 16.38C41.9146 16.78 41.6013 17.1 41.2013 17.34C40.8013 17.58 40.3546 17.7 39.8613 17.7H36.1813C36.0213 17.7 35.9413 17.7867 35.9413 17.96V22.08C35.9413 22.3333 35.8479 22.5533 35.6613 22.74C35.4879 22.9133 35.2746 23 35.0213 23H34.4813C34.2279 23 34.0079 22.9133 33.8213 22.74C33.6479 22.5533 33.5613 22.3333 33.5613 22.08V10.4C33.5613 10.1333 33.6479 9.91333 33.8213 9.74C34.0079 9.56667 34.2279 9.48 34.4813 9.48H39.8613C40.3546 9.48 40.8013 9.6 41.2013 9.84C41.6013 10.08 41.9146 10.4 42.1413 10.8C42.3813 11.2 42.5013 11.6467 42.5013 12.14V15.06ZM40.1413 15.06V12.14C40.1413 11.9533 40.0479 11.86 39.8613 11.86H36.1813C36.0213 11.86 35.9413 11.9467 35.9413 12.12V15.06C35.9413 15.2333 36.0213 15.32 36.1813 15.32H39.8613C40.0479 15.32 40.1413 15.2333 40.1413 15.06ZM52.847 21.8C52.927 22.1067 52.8804 22.3867 52.707 22.64C52.5337 22.88 52.287 23 51.967 23H51.387C51.2004 23 51.0204 22.94 50.847 22.82C50.687 22.7 50.5737 22.5533 50.507 22.38L49.747 20.08C49.6937 19.9067 49.5804 19.82 49.407 19.82H45.987C45.8137 19.82 45.7004 19.9067 45.647 20.08L44.887 22.38C44.8204 22.5533 44.707 22.7 44.547 22.82C44.387 22.94 44.207 23 44.007 23H43.427C43.107 23 42.8604 22.88 42.687 22.64C42.5004 22.3733 42.4604 22.0933 42.567 21.8L46.447 10.1C46.5137 9.91333 46.6204 9.76667 46.767 9.66C46.927 9.54 47.1004 9.48 47.287 9.48H48.107C48.2937 9.48 48.467 9.54 48.627 9.66C48.787 9.76667 48.8937 9.91333 48.947 10.1L52.847 21.8ZM48.807 17.2L47.807 14.14C47.7404 14.0467 47.667 14.0467 47.587 14.14L46.587 17.2C46.5604 17.2667 46.567 17.3267 46.607 17.38C46.647 17.4333 46.7004 17.46 46.767 17.46H48.627C48.6937 17.46 48.747 17.4333 48.787 17.38C48.827 17.3267 48.8337 17.2667 48.807 17.2ZM63.3797 20.36C63.3797 20.84 63.2597 21.28 63.0197 21.68C62.7797 22.08 62.4597 22.4 62.0597 22.64C61.6597 22.88 61.2197 23 60.7397 23H57.1397C56.6597 23 56.213 22.88 55.7997 22.64C55.3997 22.4 55.0797 22.08 54.8397 21.68C54.5997 21.28 54.4797 20.84 54.4797 20.36V12.14C54.4797 11.6467 54.5997 11.2 54.8397 10.8C55.0797 10.4 55.3997 10.08 55.7997 9.84C56.213 9.6 56.6597 9.48 57.1397 9.48H60.7397C61.2197 9.48 61.6597 9.6 62.0597 9.84C62.4597 10.08 62.7797 10.4 63.0197 10.8C63.2597 11.2 63.3797 11.6467 63.3797 12.14V12.68C63.3797 12.9333 63.293 13.1467 63.1197 13.32C62.9464 13.4933 62.7264 13.58 62.4597 13.58H61.9197C61.6664 13.58 61.4464 13.4933 61.2597 13.32C61.0864 13.1467 60.9997 12.9333 60.9997 12.68V12.14C60.9997 11.9533 60.913 11.86 60.7397 11.86H57.1397C56.9664 11.86 56.8797 11.9533 56.8797 12.14V20.36C56.8797 20.4267 56.9064 20.4933 56.9597 20.56C57.013 20.6133 57.073 20.64 57.1397 20.64H60.7397C60.8064 20.64 60.8664 20.6133 60.9197 20.56C60.973 20.4933 60.9997 20.4267 60.9997 20.36V19.76C60.9997 19.5067 61.0864 19.2933 61.2597 19.12C61.4464 18.9333 61.6664 18.84 61.9197 18.84H62.4597C62.7264 18.84 62.9464 18.9333 63.1197 19.12C63.293 19.2933 63.3797 19.5067 63.3797 19.76V20.36ZM73.687 22.08C73.687 22.3333 73.5937 22.5533 73.407 22.74C73.2337 22.9133 73.027 23 72.787 23H65.907C65.667 23 65.4537 22.9133 65.267 22.74C65.0937 22.5533 65.007 22.3333 65.007 22.08V10.4C65.007 10.1333 65.0937 9.91333 65.267 9.74C65.4537 9.56667 65.667 9.48 65.907 9.48H72.787C73.027 9.48 73.2337 9.56667 73.407 9.74C73.5937 9.91333 73.687 10.1333 73.687 10.4V10.94C73.687 11.1933 73.5937 11.4133 73.407 11.6C73.2337 11.7733 73.027 11.86 72.787 11.86H67.627C67.467 11.86 67.387 11.9467 67.387 12.12V14.78C67.387 14.9667 67.467 15.06 67.627 15.06H72.067C72.3337 15.06 72.5537 15.1467 72.727 15.32C72.9004 15.4933 72.987 15.7067 72.987 15.96V16.52C72.987 16.7733 72.9004 16.9933 72.727 17.18C72.5537 17.3533 72.3337 17.44 72.067 17.44H67.627C67.467 17.44 67.387 17.52 67.387 17.68V20.38C67.387 20.5533 67.467 20.64 67.627 20.64H72.787C73.027 20.64 73.2337 20.7267 73.407 20.9C73.5937 21.0733 73.687 21.2933 73.687 21.56V22.08ZM88.7898 20.36C88.7898 20.84 88.6698 21.28 88.4298 21.68C88.1898 22.08 87.8698 22.4 87.4698 22.64C87.0698 22.88 86.6298 23 86.1498 23H80.8098C80.5565 23 80.3365 22.9133 80.1498 22.74C79.9765 22.5533 79.8898 22.3333 79.8898 22.08V10.4C79.8898 10.1333 79.9765 9.91333 80.1498 9.74C80.3365 9.56667 80.5565 9.48 80.8098 9.48H85.8698C86.3632 9.48 86.8032 9.6 87.1898 9.84C87.5898 10.08 87.9098 10.4 88.1498 10.8C88.3898 11.2 88.5098 11.6467 88.5098 12.14V14.52C88.5098 14.88 88.4432 15.2133 88.3098 15.52C88.2432 15.6667 88.2565 15.8133 88.3498 15.96C88.6432 16.4 88.7898 16.8933 88.7898 17.44V20.36ZM86.1498 14.52V12.14C86.1498 12.06 86.1165 11.9933 86.0498 11.94C85.9965 11.8867 85.9365 11.86 85.8698 11.86H82.5498C82.3765 11.86 82.2898 11.9467 82.2898 12.12V14.52C82.2898 14.6933 82.3765 14.78 82.5498 14.78H85.8698C85.9365 14.78 85.9965 14.7533 86.0498 14.7C86.1165 14.6467 86.1498 14.5867 86.1498 14.52ZM86.4098 20.36V17.44C86.4098 17.2533 86.3232 17.16 86.1498 17.16H82.5498C82.3765 17.16 82.2898 17.2467 82.2898 17.42V20.38C82.2898 20.5533 82.3765 20.64 82.5498 20.64H86.1498C86.2165 20.64 86.2765 20.6133 86.3298 20.56C86.3832 20.4933 86.4098 20.4267 86.4098 20.36ZM100.757 21.8C100.837 22.1067 100.791 22.3867 100.617 22.64C100.444 22.88 100.197 23 99.8772 23H99.2972C99.1105 23 98.9305 22.94 98.7572 22.82C98.5972 22.7 98.4839 22.5533 98.4172 22.38L97.6572 20.08C97.6039 19.9067 97.4905 19.82 97.3172 19.82H93.8972C93.7239 19.82 93.6105 19.9067 93.5572 20.08L92.7972 22.38C92.7305 22.5533 92.6172 22.7 92.4572 22.82C92.2972 22.94 92.1172 23 91.9172 23H91.3372C91.0172 23 90.7705 22.88 90.5972 22.64C90.4105 22.3733 90.3705 22.0933 90.4772 21.8L94.3572 10.1C94.4239 9.91333 94.5305 9.76667 94.6772 9.66C94.8372 9.54 95.0105 9.48 95.1972 9.48H96.0172C96.2039 9.48 96.3772 9.54 96.5372 9.66C96.6972 9.76667 96.8039 9.91333 96.8572 10.1L100.757 21.8ZM96.7172 17.2L95.7172 14.14C95.6505 14.0467 95.5772 14.0467 95.4972 14.14L94.4972 17.2C94.4705 17.2667 94.4772 17.3267 94.5172 17.38C94.5572 17.4333 94.6105 17.46 94.6772 17.46H96.5372C96.6039 17.46 96.6572 17.4333 96.6972 17.38C96.7372 17.3267 96.7439 17.2667 96.7172 17.2ZM111.45 21.74C111.583 22.0467 111.563 22.3267 111.39 22.58C111.19 22.86 110.937 23 110.63 23H110.03C109.857 23 109.683 22.9467 109.51 22.84C109.35 22.7333 109.237 22.6 109.17 22.44L107.29 17.94C107.223 17.78 107.103 17.7 106.93 17.7H105.07C104.897 17.7 104.81 17.7867 104.81 17.96V22.08C104.81 22.3333 104.717 22.5533 104.53 22.74C104.357 22.9133 104.143 23 103.89 23H103.33C103.077 23 102.863 22.9133 102.69 22.74C102.53 22.5533 102.45 22.3333 102.45 22.08V10.4C102.45 10.1333 102.53 9.91333 102.69 9.74C102.863 9.56667 103.077 9.48 103.33 9.48H108.75C109.23 9.48 109.67 9.6 110.07 9.84C110.47 10.08 110.79 10.4 111.03 10.8C111.27 11.2 111.39 11.6467 111.39 12.14V15.06C111.39 15.58 111.25 16.0533 110.97 16.48C110.703 16.8933 110.35 17.2133 109.91 17.44C109.857 17.4533 109.817 17.5 109.79 17.58C109.763 17.6467 109.77 17.7133 109.81 17.78L111.45 21.74ZM109.01 15.06V12.14C109.01 11.9533 108.923 11.86 108.75 11.86H105.07C104.897 11.86 104.81 11.9467 104.81 12.12V15.06C104.81 15.2333 104.897 15.32 105.07 15.32H108.75C108.923 15.32 109.01 15.2333 109.01 15.06ZM126.46 22.08C126.46 22.3333 126.367 22.5533 126.18 22.74C126.007 22.9133 125.8 23 125.56 23H118.68C118.44 23 118.227 22.9133 118.04 22.74C117.867 22.5533 117.78 22.3333 117.78 22.08V10.4C117.78 10.1333 117.867 9.91333 118.04 9.74C118.227 9.56667 118.44 9.48 118.68 9.48H119.24C119.494 9.48 119.707 9.56667 119.88 9.74C120.067 9.91333 120.16 10.1333 120.16 10.4V20.38C120.16 20.5533 120.24 20.64 120.4 20.64H125.56C125.8 20.64 126.007 20.7267 126.18 20.9C126.367 21.0733 126.46 21.2933 126.46 21.56V22.08ZM138.394 21.8C138.474 22.1067 138.427 22.3867 138.254 22.64C138.081 22.88 137.834 23 137.514 23H136.934C136.747 23 136.567 22.94 136.394 22.82C136.234 22.7 136.121 22.5533 136.054 22.38L135.294 20.08C135.241 19.9067 135.127 19.82 134.954 19.82H131.534C131.361 19.82 131.247 19.9067 131.194 20.08L130.434 22.38C130.367 22.5533 130.254 22.7 130.094 22.82C129.934 22.94 129.754 23 129.554 23H128.974C128.654 23 128.407 22.88 128.234 22.64C128.047 22.3733 128.007 22.0933 128.114 21.8L131.994 10.1C132.061 9.91333 132.167 9.76667 132.314 9.66C132.474 9.54 132.647 9.48 132.834 9.48H133.654C133.841 9.48 134.014 9.54 134.174 9.66C134.334 9.76667 134.441 9.91333 134.494 10.1L138.394 21.8ZM134.354 17.2L133.354 14.14C133.287 14.0467 133.214 14.0467 133.134 14.14L132.134 17.2C132.107 17.2667 132.114 17.3267 132.154 17.38C132.194 17.4333 132.247 17.46 132.314 17.46H134.174C134.241 17.46 134.294 17.4333 134.334 17.38C134.374 17.3267 134.381 17.2667 134.354 17.2ZM148.927 20.36C148.927 20.84 148.807 21.28 148.567 21.68C148.327 22.08 148.007 22.4 147.607 22.64C147.207 22.88 146.767 23 146.287 23H140.947C140.693 23 140.473 22.9133 140.287 22.74C140.113 22.5533 140.027 22.3333 140.027 22.08V10.4C140.027 10.1333 140.113 9.91333 140.287 9.74C140.473 9.56667 140.693 9.48 140.947 9.48H146.007C146.5 9.48 146.94 9.6 147.327 9.84C147.727 10.08 148.047 10.4 148.287 10.8C148.527 11.2 148.647 11.6467 148.647 12.14V14.52C148.647 14.88 148.58 15.2133 148.447 15.52C148.38 15.6667 148.393 15.8133 148.487 15.96C148.78 16.4 148.927 16.8933 148.927 17.44V20.36ZM146.287 14.52V12.14C146.287 12.06 146.253 11.9933 146.187 11.94C146.133 11.8867 146.073 11.86 146.007 11.86H142.687C142.513 11.86 142.427 11.9467 142.427 12.12V14.52C142.427 14.6933 142.513 14.78 142.687 14.78H146.007C146.073 14.78 146.133 14.7533 146.187 14.7C146.253 14.6467 146.287 14.5867 146.287 14.52ZM146.547 20.36V17.44C146.547 17.2533 146.46 17.16 146.287 17.16H142.687C142.513 17.16 142.427 17.2467 142.427 17.42V20.38C142.427 20.5533 142.513 20.64 142.687 20.64H146.287C146.353 20.64 146.413 20.6133 146.467 20.56C146.52 20.4933 146.547 20.4267 146.547 20.36ZM159.714 20.36C159.714 20.84 159.594 21.28 159.354 21.68C159.114 22.08 158.794 22.4 158.394 22.64C157.994 22.88 157.554 23 157.074 23H153.234C152.754 23 152.307 22.88 151.894 22.64C151.494 22.4 151.174 22.08 150.934 21.68C150.694 21.28 150.574 20.84 150.574 20.36V19.76C150.574 19.5067 150.661 19.2933 150.834 19.12C151.021 18.9333 151.241 18.84 151.494 18.84H152.054C152.294 18.84 152.501 18.9333 152.674 19.12C152.861 19.2933 152.954 19.5067 152.954 19.76V20.36C152.954 20.4267 152.981 20.4933 153.034 20.56C153.101 20.6133 153.167 20.64 153.234 20.64H157.074C157.141 20.64 157.201 20.6133 157.254 20.56C157.307 20.4933 157.334 20.4267 157.334 20.36V18.54C157.334 18.3933 157.267 18.3 157.134 18.26L152.334 16.46C151.801 16.2733 151.374 15.9467 151.054 15.48C150.734 15.0133 150.574 14.5 150.574 13.94V12.14C150.574 11.6467 150.694 11.2 150.934 10.8C151.174 10.4 151.494 10.08 151.894 9.84C152.307 9.6 152.754 9.48 153.234 9.48H157.074C157.554 9.48 157.994 9.6 158.394 9.84C158.794 10.08 159.114 10.4 159.354 10.8C159.594 11.2 159.714 11.6467 159.714 12.14V12.68C159.714 12.9333 159.621 13.1467 159.434 13.32C159.261 13.4933 159.047 13.58 158.794 13.58H158.254C158.001 13.58 157.781 13.4933 157.594 13.32C157.421 13.1467 157.334 12.9333 157.334 12.68V12.14C157.334 11.9533 157.247 11.86 157.074 11.86H153.234C153.167 11.86 153.101 11.8867 153.034 11.94C152.981 11.9933 152.954 12.06 152.954 12.14V13.94C152.954 14.1 153.021 14.2 153.154 14.24L157.974 16.04C158.494 16.2267 158.914 16.5533 159.234 17.02C159.554 17.4867 159.714 17.9933 159.714 18.54V20.36Z" fill="#131313"/>
</svg>
